<svg xmlns="http://www.w3.org/2000/svg" xmlns:xlink="http://www.w3.org/1999/xlink" version="1.1" width="256" height="256" viewBox="0 0 256 256" xml:space="preserve">
<g style="stroke: none; stroke-width: 0; stroke-dasharray: none; stroke-linecap: butt; stroke-linejoin: miter; stroke-miterlimit: 10; fill: none; fill-rule: nonzero; opacity: 1;" transform="translate(1.4065934065934016 1.4065934065934016) scale(2.81 2.81)">
	<circle cx="57.342" cy="41.672" r="19.192" style="stroke: none; stroke-width: 1; stroke-dasharray: none; stroke-linecap: butt; stroke-linejoin: miter; stroke-miterlimit: 10; fill: rgb(249,193,0); fill-rule: nonzero; opacity: 1;" transform="  matrix(1 0 0 1 0 0) "/>
	<path d="M 57.344 61.864 c -11.134 0 -20.192 -9.058 -20.192 -20.192 S 46.21 21.48 57.344 21.48 s 20.192 9.058 20.192 20.192 S 68.478 61.864 57.344 61.864 z M 57.344 23.48 c -10.031 0 -18.192 8.161 -18.192 18.192 c 0 10.031 8.161 18.192 18.192 18.192 s 18.192 -8.161 18.192 -18.192 C 75.536 31.641 67.375 23.48 57.344 23.48 z" style="stroke: none; stroke-width: 1; stroke-dasharray: none; stroke-linecap: butt; stroke-linejoin: miter; stroke-miterlimit: 10; fill: rgb(0,0,0); fill-rule: nonzero; opacity: 1;" transform=" matrix(1 0 0 1 0 0) " stroke-linecap="round"/>
	<path d="M 57.344 17.529 c -0.553 0 -1 -0.448 -1 -1 v -6.513 c 0 -0.552 0.447 -1 1 -1 s 1 0.448 1 1 v 6.513 C 58.344 17.082 57.896 17.529 57.344 17.529 z" style="stroke: none; stroke-width: 1; stroke-dasharray: none; stroke-linecap: butt; stroke-linejoin: miter; stroke-miterlimit: 10; fill: rgb(0,0,0); fill-rule: nonzero; opacity: 1;" transform=" matrix(1 0 0 1 0 0) " stroke-linecap="round"/>
	<path d="M 89 42.672 h -6.514 c -0.553 0 -1 -0.448 -1 -1 s 0.447 -1 1 -1 H 89 c 0.553 0 1 0.448 1 1 S 89.553 42.672 89 42.672 z" style="stroke: none; stroke-width: 1; stroke-dasharray: none; stroke-linecap: butt; stroke-linejoin: miter; stroke-miterlimit: 10; fill: rgb(0,0,0); fill-rule: nonzero; opacity: 1;" transform=" matrix(1 0 0 1 0 0) " stroke-linecap="round"/>
	<path d="M 39.565 24.894 c -0.256 0 -0.512 -0.098 -0.707 -0.293 l -4.605 -4.605 c -0.391 -0.391 -0.391 -1.023 0 -1.414 s 1.023 -0.391 1.414 0 l 4.605 4.605 c 0.391 0.391 0.391 1.023 0 1.414 C 40.077 24.796 39.821 24.894 39.565 24.894 z" style="stroke: none; stroke-width: 1; stroke-dasharray: none; stroke-linecap: butt; stroke-linejoin: miter; stroke-miterlimit: 10; fill: rgb(0,0,0); fill-rule: nonzero; opacity: 1;" transform=" matrix(1 0 0 1 0 0) " stroke-linecap="round"/>
	<path d="M 75.122 24.894 c -0.256 0 -0.512 -0.098 -0.707 -0.293 c -0.391 -0.391 -0.391 -1.024 0 -1.414 l 4.606 -4.605 c 0.391 -0.391 1.023 -0.391 1.414 0 s 0.391 1.024 0 1.414 l -4.606 4.605 C 75.634 24.796 75.378 24.894 75.122 24.894 z" style="stroke: none; stroke-width: 1; stroke-dasharray: none; stroke-linecap: butt; stroke-linejoin: miter; stroke-miterlimit: 10; fill: rgb(0,0,0); fill-rule: nonzero; opacity: 1;" transform=" matrix(1 0 0 1 0 0) " stroke-linecap="round"/>
	<path d="M 9.757 55.167 c -0.032 -0.474 -0.053 -0.951 -0.053 -1.433 c 0 -11.749 9.525 -21.274 21.274 -21.274 c 8.5 0 15.833 4.986 19.24 12.192 c 2.566 -1.822 5.695 -2.904 9.082 -2.904 c 7.836 0 14.314 5.74 15.505 13.241 c 5.396 1.476 9.367 6.401 9.367 12.265 c 0 7.03 -5.699 12.729 -12.729 12.729 H 13.729 C 6.699 79.984 1 74.285 1 67.255 C 1 61.613 4.674 56.836 9.757 55.167 z" style="stroke: none; stroke-width: 1; stroke-dasharray: none; stroke-linecap: butt; stroke-linejoin: miter; stroke-miterlimit: 10; fill: rgb(98,195,247); fill-rule: nonzero; opacity: 1;" transform=" matrix(1 0 0 1 0 0) " stroke-linecap="round"/>
	<path d="M 71.442 80.983 H 13.729 C 6.159 80.983 0 74.825 0 67.255 c 0 -5.685 3.473 -10.726 8.719 -12.777 c -0.01 -0.246 -0.015 -0.494 -0.015 -0.743 c 0 -12.282 9.992 -22.274 22.274 -22.274 c 8.187 0 15.767 4.572 19.625 11.739 c 2.624 -1.607 5.607 -2.451 8.696 -2.451 c 8.049 0 14.84 5.623 16.382 13.461 c 5.619 1.822 9.49 7.098 9.49 13.046 C 85.172 74.825 79.013 80.983 71.442 80.983 z M 30.978 33.46 c -11.179 0 -20.274 9.095 -20.274 20.274 c 0 0.459 0.021 0.914 0.051 1.367 c 0.03 0.455 -0.252 0.873 -0.686 1.016 C 5.243 57.702 2 62.179 2 67.255 c 0 6.467 5.262 11.729 11.729 11.729 h 57.713 c 6.468 0 11.729 -5.262 11.729 -11.729 c 0 -5.264 -3.549 -9.91 -8.631 -11.3 c -0.379 -0.104 -0.662 -0.42 -0.724 -0.809 c -1.141 -7.184 -7.246 -12.398 -14.518 -12.398 c -3.057 0 -5.997 0.94 -8.503 2.719 c -0.242 0.171 -0.548 0.228 -0.832 0.152 c -0.286 -0.075 -0.524 -0.272 -0.651 -0.54 C 45.976 38.021 38.779 33.46 30.978 33.46 z" style="stroke: none; stroke-width: 1; stroke-dasharray: none; stroke-linecap: butt; stroke-linejoin: miter; stroke-miterlimit: 10; fill: rgb(0,0,0); fill-rule: nonzero; opacity: 1;" transform=" matrix(1 0 0 1 0 0) " stroke-linecap="round"/>
</g>
</svg>