<svg xmlns="http://www.w3.org/2000/svg" xmlns:xlink="http://www.w3.org/1999/xlink" version="1.1" width="256" height="256" viewBox="0 0 256 256" xml:space="preserve">
<g style="stroke: none; stroke-width: 0; stroke-dasharray: none; stroke-linecap: butt; stroke-linejoin: miter; stroke-miterlimit: 10; fill: none; fill-rule: nonzero; opacity: 1;" transform="translate(1.4065934065934016 1.4065934065934016) scale(2.81 2.81)">
	<circle cx="33.647" cy="30.127000000000002" r="17.657" style="stroke: none; stroke-width: 1; stroke-dasharray: none; stroke-linecap: butt; stroke-linejoin: miter; stroke-miterlimit: 10; fill: rgb(249,193,0); fill-rule: nonzero; opacity: 1;" transform="  matrix(1 0 0 1 0 0) "/>
	<path d="M 33.644 48.781 c -10.288 0 -18.657 -8.37 -18.657 -18.657 s 8.37 -18.657 18.657 -18.657 s 18.657 8.369 18.657 18.657 S 43.931 48.781 33.644 48.781 z M 33.644 13.467 c -9.185 0 -16.657 7.472 -16.657 16.657 c 0 9.185 7.472 16.657 16.657 16.657 s 16.657 -7.472 16.657 -16.657 C 50.301 20.939 42.829 13.467 33.644 13.467 z" style="stroke: none; stroke-width: 1; stroke-dasharray: none; stroke-linecap: butt; stroke-linejoin: miter; stroke-miterlimit: 10; fill: rgb(0,0,0); fill-rule: nonzero; opacity: 1;" transform=" matrix(1 0 0 1 0 0) " stroke-linecap="round"/>
	<path d="M 33.644 7.992 c -0.552 0 -1 -0.448 -1 -1 V 1 c 0 -0.552 0.448 -1 1 -1 s 1 0.448 1 1 v 5.992 C 34.644 7.544 34.196 7.992 33.644 7.992 z" style="stroke: none; stroke-width: 1; stroke-dasharray: none; stroke-linecap: butt; stroke-linejoin: miter; stroke-miterlimit: 10; fill: rgb(0,0,0); fill-rule: nonzero; opacity: 1;" transform=" matrix(1 0 0 1 0 0) " stroke-linecap="round"/>
	<path d="M 10.512 31.124 H 4.52 c -0.552 0 -1 -0.448 -1 -1 s 0.448 -1 1 -1 h 5.992 c 0.552 0 1 0.448 1 1 S 11.064 31.124 10.512 31.124 z" style="stroke: none; stroke-width: 1; stroke-dasharray: none; stroke-linecap: butt; stroke-linejoin: miter; stroke-miterlimit: 10; fill: rgb(0,0,0); fill-rule: nonzero; opacity: 1;" transform=" matrix(1 0 0 1 0 0) " stroke-linecap="round"/>
	<path d="M 50 14.768 c -0.256 0 -0.512 -0.098 -0.707 -0.293 c -0.391 -0.391 -0.391 -1.023 0 -1.414 l 4.237 -4.237 c 0.391 -0.391 1.023 -0.391 1.414 0 s 0.391 1.023 0 1.414 l -4.237 4.237 C 50.512 14.67 50.256 14.768 50 14.768 z" style="stroke: none; stroke-width: 1; stroke-dasharray: none; stroke-linecap: butt; stroke-linejoin: miter; stroke-miterlimit: 10; fill: rgb(0,0,0); fill-rule: nonzero; opacity: 1;" transform=" matrix(1 0 0 1 0 0) " stroke-linecap="round"/>
	<path d="M 17.287 14.768 c -0.256 0 -0.512 -0.098 -0.707 -0.293 l -4.237 -4.237 c -0.391 -0.391 -0.391 -1.023 0 -1.414 s 1.023 -0.391 1.414 0 l 4.237 4.237 c 0.391 0.391 0.391 1.023 0 1.414 C 17.798 14.67 17.542 14.768 17.287 14.768 z" style="stroke: none; stroke-width: 1; stroke-dasharray: none; stroke-linecap: butt; stroke-linejoin: miter; stroke-miterlimit: 10; fill: rgb(0,0,0); fill-rule: nonzero; opacity: 1;" transform=" matrix(1 0 0 1 0 0) " stroke-linecap="round"/>
	<path d="M 77.424 42.539 c 0.029 -0.436 0.049 -0.875 0.049 -1.318 c 0 -10.81 -8.763 -19.573 -19.573 -19.573 c -7.82 0 -14.566 4.588 -17.701 11.217 c -2.361 -1.676 -5.239 -2.671 -8.355 -2.671 c -7.21 0 -13.169 5.281 -14.265 12.182 c -4.964 1.358 -8.617 5.889 -8.617 11.284 c 0 6.468 5.243 11.711 11.711 11.711 H 73.77 c 6.468 0 11.711 -5.243 11.711 -11.711 C 85.481 48.47 82.101 44.075 77.424 42.539 z" style="stroke: none; stroke-width: 1; stroke-dasharray: none; stroke-linecap: butt; stroke-linejoin: miter; stroke-miterlimit: 10; fill: rgb(98,195,247); fill-rule: nonzero; opacity: 1;" transform=" matrix(1 0 0 1 0 0) " stroke-linecap="round"/>
	<path d="M 73.77 66.371 H 20.672 c -7.009 0 -12.711 -5.702 -12.711 -12.711 c 0 -5.491 3.563 -10.363 8.742 -12.064 c 1.443 -7.224 7.713 -12.402 15.141 -12.402 c 2.829 0 5.561 0.765 7.97 2.223 C 43.39 24.839 50.367 20.648 57.9 20.648 c 11.344 0 20.573 9.229 20.573 20.573 c 0 0.211 -0.004 0.421 -0.012 0.63 c 4.827 1.913 8.019 6.565 8.019 11.809 C 86.48 60.669 80.778 66.371 73.77 66.371 z M 31.844 31.194 c -6.65 0 -12.234 4.769 -13.277 11.339 c -0.062 0.388 -0.345 0.704 -0.724 0.808 c -4.641 1.27 -7.882 5.514 -7.882 10.319 c 0 5.906 4.805 10.711 10.711 10.711 H 73.77 c 5.906 0 10.711 -4.805 10.711 -10.711 c 0 -4.636 -2.961 -8.723 -7.369 -10.171 c -0.434 -0.143 -0.716 -0.562 -0.686 -1.017 c 0.028 -0.414 0.048 -0.83 0.048 -1.251 c 0 -10.241 -8.332 -18.573 -18.573 -18.573 c -7.146 0 -13.74 4.178 -16.797 10.644 c -0.126 0.268 -0.365 0.465 -0.651 0.54 c -0.287 0.074 -0.591 0.018 -0.832 -0.152 C 37.329 32.054 34.64 31.194 31.844 31.194 z" style="stroke: none; stroke-width: 1; stroke-dasharray: none; stroke-linecap: butt; stroke-linejoin: miter; stroke-miterlimit: 10; fill: rgb(0,0,0); fill-rule: nonzero; opacity: 1;" transform=" matrix(1 0 0 1 0 0) " stroke-linecap="round"/>
	<path d="M 30.28 80.8 c -0.552 0 -1 -0.447 -1 -1 v -8.587 c 0 -0.553 0.448 -1 1 -1 s 1 0.447 1 1 V 79.8 C 31.28 80.353 30.832 80.8 30.28 80.8 z" style="stroke: none; stroke-width: 1; stroke-dasharray: none; stroke-linecap: butt; stroke-linejoin: miter; stroke-miterlimit: 10; fill: rgb(0,0,0); fill-rule: nonzero; opacity: 1;" transform=" matrix(1 0 0 1 0 0) " stroke-linecap="round"/>
	<path d="M 39.48 90 c -0.552 0 -1 -0.447 -1 -1 v -8.587 c 0 -0.553 0.448 -1 1 -1 s 1 0.447 1 1 V 89 C 40.48 89.553 40.032 90 39.48 90 z" style="stroke: none; stroke-width: 1; stroke-dasharray: none; stroke-linecap: butt; stroke-linejoin: miter; stroke-miterlimit: 10; fill: rgb(0,0,0); fill-rule: nonzero; opacity: 1;" transform=" matrix(1 0 0 1 0 0) " stroke-linecap="round"/>
	<path d="M 48.68 80.8 c -0.553 0 -1 -0.447 -1 -1 v -8.587 c 0 -0.553 0.447 -1 1 -1 s 1 0.447 1 1 V 79.8 C 49.68 80.353 49.232 80.8 48.68 80.8 z" style="stroke: none; stroke-width: 1; stroke-dasharray: none; stroke-linecap: butt; stroke-linejoin: miter; stroke-miterlimit: 10; fill: rgb(0,0,0); fill-rule: nonzero; opacity: 1;" transform=" matrix(1 0 0 1 0 0) " stroke-linecap="round"/>
	<path d="M 57.88 90 c -0.553 0 -1 -0.447 -1 -1 v -8.587 c 0 -0.553 0.447 -1 1 -1 s 1 0.447 1 1 V 89 C 58.88 89.553 58.433 90 57.88 90 z" style="stroke: none; stroke-width: 1; stroke-dasharray: none; stroke-linecap: butt; stroke-linejoin: miter; stroke-miterlimit: 10; fill: rgb(0,0,0); fill-rule: nonzero; opacity: 1;" transform=" matrix(1 0 0 1 0 0) " stroke-linecap="round"/>
	<path d="M 67.08 80.8 c -0.553 0 -1 -0.447 -1 -1 v -8.587 c 0 -0.553 0.447 -1 1 -1 s 1 0.447 1 1 V 79.8 C 68.08 80.353 67.633 80.8 67.08 80.8 z" style="stroke: none; stroke-width: 1; stroke-dasharray: none; stroke-linecap: butt; stroke-linejoin: miter; stroke-miterlimit: 10; fill: rgb(0,0,0); fill-rule: nonzero; opacity: 1;" transform=" matrix(1 0 0 1 0 0) " stroke-linecap="round"/>
</g>
</svg>