<svg xmlns="http://www.w3.org/2000/svg" xmlns:xlink="http://www.w3.org/1999/xlink" version="1.1" width="256" height="256" viewBox="0 0 256 256" xml:space="preserve">
<g style="stroke: none; stroke-width: 0; stroke-dasharray: none; stroke-linecap: butt; stroke-linejoin: miter; stroke-miterlimit: 10; fill: none; fill-rule: nonzero; opacity: 1;" transform="translate(1.4065934065934016 1.4065934065934016) scale(2.81 2.81)">
	<path d="M 9.476 24.843 c -0.034 -0.513 -0.058 -1.029 -0.058 -1.55 c 0 -12.714 10.307 -23.021 23.021 -23.021 c 9.198 0 17.133 5.396 20.82 13.193 c 2.777 -1.972 6.162 -3.142 9.827 -3.142 c 8.48 0 15.49 6.212 16.778 14.329 C 85.703 26.249 90 31.578 90 37.924 c 0 7.607 -6.167 13.774 -13.774 13.774 H 13.774 C 6.167 51.697 0 45.531 0 37.924 C 0 31.819 3.976 26.65 9.476 24.843 z" style="stroke: none; stroke-width: 1; stroke-dasharray: none; stroke-linecap: butt; stroke-linejoin: miter; stroke-miterlimit: 10; fill: rgb(98,195,247); fill-rule: nonzero; opacity: 1;" transform=" matrix(1 0 0 1 0 0) " stroke-linecap="round"/>
	<path d="M 65.455 71.319 c -0.565 0 -1.023 -0.457 -1.023 -1.023 V 60.75 c 0 -0.565 0.457 -1.023 1.023 -1.023 c 0.565 0 1.023 0.457 1.023 1.023 v 9.546 C 66.477 70.862 66.02 71.319 65.455 71.319 z" style="stroke: none; stroke-width: 1; stroke-dasharray: none; stroke-linecap: butt; stroke-linejoin: miter; stroke-miterlimit: 10; fill: rgb(123,216,247); fill-rule: nonzero; opacity: 1;" transform=" matrix(1 0 0 1 0 0) " stroke-linecap="round"/>
	<path d="M 65.455 89.728 c -0.565 0 -1.023 -0.457 -1.023 -1.023 V 79.16 c 0 -0.565 0.457 -1.023 1.023 -1.023 c 0.565 0 1.023 0.457 1.023 1.023 v 9.546 C 66.477 89.271 66.02 89.728 65.455 89.728 z" style="stroke: none; stroke-width: 1; stroke-dasharray: none; stroke-linecap: butt; stroke-linejoin: miter; stroke-miterlimit: 10; fill: rgb(123,216,247); fill-rule: nonzero; opacity: 1;" transform=" matrix(1 0 0 1 0 0) " stroke-linecap="round"/>
	<path d="M 55.227 81.547 c -0.565 0 -1.023 -0.457 -1.023 -1.023 v -9.546 c 0 -0.565 0.457 -1.023 1.023 -1.023 s 1.023 0.457 1.023 1.023 v 9.546 C 56.25 81.089 55.793 81.547 55.227 81.547 z" style="stroke: none; stroke-width: 1; stroke-dasharray: none; stroke-linecap: butt; stroke-linejoin: miter; stroke-miterlimit: 10; fill: rgb(123,216,247); fill-rule: nonzero; opacity: 1;" transform=" matrix(1 0 0 1 0 0) " stroke-linecap="round"/>
	<path d="M 45 71.319 c -0.565 0 -1.023 -0.457 -1.023 -1.023 V 60.75 c 0 -0.565 0.458 -1.023 1.023 -1.023 s 1.023 0.457 1.023 1.023 v 9.546 C 46.023 70.862 45.565 71.319 45 71.319 z" style="stroke: none; stroke-width: 1; stroke-dasharray: none; stroke-linecap: butt; stroke-linejoin: miter; stroke-miterlimit: 10; fill: rgb(123,216,247); fill-rule: nonzero; opacity: 1;" transform=" matrix(1 0 0 1 0 0) " stroke-linecap="round"/>
	<path d="M 45 89.728 c -0.565 0 -1.023 -0.457 -1.023 -1.023 V 79.16 c 0 -0.565 0.458 -1.023 1.023 -1.023 s 1.023 0.457 1.023 1.023 v 9.546 C 46.023 89.271 45.565 89.728 45 89.728 z" style="stroke: none; stroke-width: 1; stroke-dasharray: none; stroke-linecap: butt; stroke-linejoin: miter; stroke-miterlimit: 10; fill: rgb(123,216,247); fill-rule: nonzero; opacity: 1;" transform=" matrix(1 0 0 1 0 0) " stroke-linecap="round"/>
	<path d="M 34.773 81.547 c -0.565 0 -1.023 -0.457 -1.023 -1.023 v -9.546 c 0 -0.565 0.458 -1.023 1.023 -1.023 s 1.023 0.457 1.023 1.023 v 9.546 C 35.795 81.089 35.338 81.547 34.773 81.547 z" style="stroke: none; stroke-width: 1; stroke-dasharray: none; stroke-linecap: butt; stroke-linejoin: miter; stroke-miterlimit: 10; fill: rgb(123,216,247); fill-rule: nonzero; opacity: 1;" transform=" matrix(1 0 0 1 0 0) " stroke-linecap="round"/>
	<path d="M 24.545 71.319 c -0.565 0 -1.023 -0.457 -1.023 -1.023 V 60.75 c 0 -0.565 0.458 -1.023 1.023 -1.023 c 0.565 0 1.023 0.457 1.023 1.023 v 9.546 C 25.568 70.862 25.11 71.319 24.545 71.319 z" style="stroke: none; stroke-width: 1; stroke-dasharray: none; stroke-linecap: butt; stroke-linejoin: miter; stroke-miterlimit: 10; fill: rgb(123,216,247); fill-rule: nonzero; opacity: 1;" transform=" matrix(1 0 0 1 0 0) " stroke-linecap="round"/>
	<path d="M 24.545 89.728 c -0.565 0 -1.023 -0.457 -1.023 -1.023 V 79.16 c 0 -0.565 0.458 -1.023 1.023 -1.023 c 0.565 0 1.023 0.457 1.023 1.023 v 9.546 C 25.568 89.271 25.11 89.728 24.545 89.728 z" style="stroke: none; stroke-width: 1; stroke-dasharray: none; stroke-linecap: butt; stroke-linejoin: miter; stroke-miterlimit: 10; fill: rgb(123,216,247); fill-rule: nonzero; opacity: 1;" transform=" matrix(1 0 0 1 0 0) " stroke-linecap="round"/>
</g>
</svg>